<svg width="128" height="54" viewBox="0 0 128 54" fill="none" xmlns="http://www.w3.org/2000/svg">
<path d="M35.9068 38.3348C35.6348 38.5772 35.3874 38.8141 35.1235 39.0304C33.504 40.3556 31.68 41.2572 29.6231 41.67C29.2966 41.7354 29.2971 41.7346 29.2971 42.0615C29.2971 42.5008 29.2945 42.9406 29.2956 43.38C29.2971 44.0247 29.1138 44.6281 28.8766 45.2172C28.6271 45.8378 28.3304 46.4355 27.9489 46.9869C27.8593 47.1166 27.7596 47.2414 27.6498 47.3539C27.2552 47.7601 26.6862 47.7622 26.2982 47.3465C26.1381 47.1747 26.004 46.9743 25.8759 46.7758C25.4638 46.1385 25.1507 45.452 24.9124 44.732C24.7759 44.3205 24.7031 43.8975 24.7015 43.463C24.6994 42.9709 24.6931 42.4787 24.6915 41.9866C24.6905 41.7187 24.6905 41.7297 24.439 41.6626C23.8201 41.4973 23.1933 41.3529 22.5903 41.1418C20.9619 40.5718 19.5064 39.7052 18.2586 38.5041C18.227 38.4733 18.1927 38.4454 18.1632 38.4134C18.0768 38.3211 18.0035 38.3374 17.9196 38.4245C17.731 38.6206 17.5396 38.8146 17.3398 38.9991C17.2422 39.0893 17.227 39.1789 17.2502 39.304C17.2939 39.536 17.3361 39.7706 17.3466 40.006C17.3735 40.5917 17.1663 41.1005 16.7393 41.4945C16.2686 41.9289 15.7704 42.3343 15.2781 42.7451C14.6845 43.2397 14.0851 43.7277 13.4863 44.2166C13.3983 44.2886 13.3065 44.3589 13.2074 44.4133C13.0777 44.4841 12.966 44.46 12.8721 44.3626C12.7852 44.2726 12.7646 44.1392 12.8342 44.0227C12.8737 43.9556 12.9301 43.8971 12.9849 43.8414C13.733 43.074 14.4826 42.3077 15.2311 41.5399C15.3171 41.4519 15.4041 41.3632 15.4757 41.2642C15.5917 41.1038 15.5785 40.9594 15.452 40.8374C15.3192 40.7093 15.179 40.6889 15.0282 40.8165C14.7873 41.0203 14.5622 41.2429 14.3334 41.4609C13.6913 42.0733 13.0519 42.6882 12.4088 43.3002C12.346 43.3595 12.2732 43.4127 12.1973 43.454C12.1041 43.5056 12.0081 43.4933 11.9332 43.4119C11.861 43.3333 11.8384 43.2409 11.8985 43.1468C11.9449 43.0736 11.9954 42.9999 12.0561 42.939C12.8178 42.1727 13.5822 41.4094 14.345 40.6439C14.432 40.5568 14.5221 40.4715 14.5965 40.3744C14.6992 40.24 14.6871 40.1029 14.5801 39.9933C14.4705 39.8804 14.3355 39.8602 14.1995 39.9489C14.1194 40.0016 14.045 40.0659 13.976 40.1323C13.1953 40.8798 12.4167 41.6291 11.6365 42.3769C11.5606 42.4497 11.481 42.5209 11.3929 42.5769C11.2727 42.6526 11.1509 42.6403 11.0782 42.5642C11.0018 42.4837 10.9949 42.3667 11.0671 42.2488C11.0988 42.1969 11.1409 42.1507 11.1836 42.1077C11.9596 41.3312 12.7372 40.5553 13.5137 39.7791C13.588 39.7047 13.666 39.6318 13.7288 39.5481C13.8416 39.3993 13.8384 39.2802 13.734 39.1683C13.6249 39.0513 13.4678 39.0234 13.3271 39.1109C13.2459 39.1616 13.1742 39.2285 13.1035 39.2944C12.4219 39.929 11.7419 40.5653 11.0603 41.1995C10.919 41.3317 10.7761 41.4626 10.6259 41.5837C10.444 41.7305 10.3233 41.7309 10.21 41.6037C10.0898 41.4695 10.094 41.3075 10.2311 41.1562C10.7377 40.5953 11.2464 40.037 11.7545 39.4773C12.18 39.0092 12.5985 38.5351 13.0319 38.0741C13.2854 37.8041 13.5753 37.5765 13.9296 37.4445C14.4926 37.2347 15.0504 37.2558 15.5938 37.5011C15.7594 37.5755 15.868 37.5537 15.985 37.4261C16.1568 37.2378 16.336 37.0564 16.519 36.8792C16.607 36.7944 16.6007 36.7332 16.5322 36.6345C16.2122 36.1725 15.8795 35.717 15.5938 35.2343C14.9101 34.0791 14.3697 32.8578 14.1209 31.5313C14.054 31.1756 13.9106 31.0342 13.5717 30.9329C12.2427 30.5348 10.939 30.0586 9.65436 29.5328C9.50043 29.47 9.34597 29.4011 9.20627 29.3129C8.64168 28.9569 8.658 28.1513 9.25056 27.841C9.59056 27.6629 9.95747 27.5299 10.3212 27.4033C11.3655 27.04 12.414 26.6905 13.4615 26.336C13.5859 26.2938 13.7119 26.2543 13.84 26.2238C13.956 26.1957 14.0087 26.1404 14.0308 26.0132C14.2348 24.8563 14.5949 23.7494 15.1046 22.6905C15.4952 21.88 15.9771 21.1265 16.5221 20.4119C16.5648 20.356 16.6055 20.2985 16.6466 20.2415C16.6903 20.1815 16.6798 20.134 16.6244 20.0818C16.3556 19.8292 16.0851 19.5776 15.8263 19.315C15.7246 19.2116 15.6307 19.1974 15.4979 19.2369C15.0846 19.3598 14.6682 19.363 14.2507 19.2486C13.7973 19.1246 13.4135 18.8894 13.1046 18.5356C12.4404 17.7741 11.7799 17.0094 11.114 16.2496C10.7435 15.8266 10.365 15.411 9.99174 14.9903C9.93375 14.9248 9.87576 14.8563 9.8336 14.7804C9.76453 14.6559 9.78931 14.5304 9.88525 14.4455C9.9807 14.3612 10.1004 14.3627 10.2195 14.4581C10.2743 14.5019 10.3207 14.5552 10.3703 14.6053C10.9333 15.1727 11.4957 15.7401 12.0592 16.307C12.1088 16.3566 12.1631 16.4019 12.2205 16.4426C12.3734 16.5496 12.4926 16.5391 12.6175 16.412C12.7356 16.2917 12.7472 16.1863 12.6465 16.0344C12.5985 15.9616 12.5416 15.8931 12.4804 15.8303C11.9659 15.3014 11.4493 14.774 10.9343 14.2457C10.861 14.1702 10.7872 14.0938 10.7234 14.0099C10.6017 13.8501 10.6096 13.6946 10.7361 13.5875C10.8457 13.4947 10.9617 13.5047 11.1077 13.6434C11.4066 13.9282 11.6997 14.2193 11.9933 14.5093C12.3123 14.8242 12.6286 15.141 12.948 15.4559C13.0039 15.5113 13.0656 15.5613 13.1284 15.6099C13.3044 15.7465 13.4963 15.7043 13.6064 15.5097C13.6565 15.4211 13.6455 15.3367 13.5896 15.2629C13.5047 15.1511 13.4156 15.0419 13.3181 14.9417C12.8283 14.4376 12.3339 13.9377 11.8436 13.4346C11.7398 13.3281 11.6365 13.2184 11.5484 13.0981C11.4567 12.9731 11.481 12.8482 11.5927 12.7454C11.6992 12.6478 11.7909 12.6409 11.9206 12.7496C12.0687 12.8735 12.2058 13.0101 12.3439 13.1456C12.8336 13.625 13.3212 14.1065 13.8099 14.5863C13.8353 14.6111 13.8616 14.6338 13.8885 14.657C14.0941 14.8347 14.2048 14.8389 14.3629 14.6765C14.5 14.5362 14.4973 14.4139 14.3181 14.2182C14.0809 13.9593 13.8305 13.712 13.5833 13.4625C13.2865 13.1625 12.9865 12.8666 12.6897 12.5666C12.6096 12.4854 12.53 12.4021 12.4641 12.3098C12.3629 12.1684 12.3687 12.0746 12.4641 11.9791C12.5479 11.8953 12.6887 11.8747 12.8036 11.9507C12.9127 12.0229 13.0118 12.1115 13.1109 12.1985C13.6201 12.6441 14.1262 13.0924 14.636 13.5374C15.1721 14.0057 15.7114 14.4692 16.2465 14.9381C16.3914 15.0651 16.5353 15.1964 16.6634 15.3404C17.2138 15.9579 17.3862 16.6751 17.1732 17.4714C17.1247 17.6539 17.1568 17.7704 17.2797 17.8901C17.5559 18.158 17.829 18.4291 18.0989 18.6948C18.4663 18.399 18.8179 18.0926 19.1922 17.8174C20.6978 16.7099 22.3699 15.9621 24.1865 15.5329C24.2972 15.5065 24.41 15.4786 24.5228 15.4728C24.6799 15.4648 24.7047 15.381 24.701 15.2465C24.6905 14.8863 24.6752 14.5257 24.6883 14.166C24.7711 11.9132 25.6989 10.0517 27.3303 8.52555C27.5086 8.35889 27.7152 8.21812 27.9241 8.09048C28.1628 7.9444 28.428 7.88852 28.7075 7.97025C29.0647 8.07518 29.2868 8.36417 29.2995 8.75338C29.3062 8.9643 29.2971 9.17523 29.2971 9.38616C29.2979 11.3025 29.299 13.2189 29.3 15.1353C29.3 15.1706 29.3031 15.2059 29.2995 15.2407C29.2853 15.371 29.3431 15.4301 29.4717 15.4522C30.1128 15.5645 30.7342 15.7486 31.3489 15.9616C32.426 16.335 33.4291 16.8502 34.3755 17.4846C34.8657 17.8136 35.3215 18.1839 35.7596 18.5778C35.7914 18.6062 35.8255 18.6326 35.8745 18.6732C36.1282 18.4069 36.3738 18.1448 36.6249 17.8885C36.7186 17.792 36.7253 17.6997 36.668 17.5811C35.8794 15.959 36.4655 13.6793 38.2024 12.4516C39.2309 11.7249 40.3743 11.4512 41.6188 11.5952C41.8699 11.6242 42.1235 11.6733 42.3627 11.7518C43.3589 12.0798 43.9265 12.7949 44.115 13.8053C44.2913 14.7487 44.1796 15.68 43.8713 16.5839C43.5384 17.5595 42.979 18.3795 42.0928 18.9311C40.9146 19.6651 39.6739 19.8323 38.377 19.2549C38.2546 19.2006 38.182 19.2069 38.0859 19.3076C37.8561 19.5492 37.6084 19.7738 37.3713 20.009C37.2432 20.1356 37.2499 20.1371 37.3543 20.288C37.7148 20.8069 38.1035 21.3094 38.4261 21.8505C39.1746 23.1056 39.6744 24.4608 39.9489 25.8972C39.9833 26.076 40.0461 26.1752 40.2385 26.2396C41.6123 26.6966 42.981 27.1692 44.3473 27.648C44.5338 27.7133 44.7194 27.817 44.8675 27.9462C45.3149 28.3394 45.2711 28.9589 44.7804 29.2977C44.6377 29.3961 44.4737 29.469 44.3121 29.5359C42.9569 30.0981 41.5734 30.5808 40.1692 31.0058C40.0158 31.0521 39.9378 31.1138 39.9048 31.2779C39.5078 33.22 38.7198 34.9855 37.4994 36.5528C37.4725 36.5877 37.4439 36.6208 37.4149 36.6541C37.3597 36.7184 37.3612 36.7802 37.4219 36.8396C37.6469 37.0618 37.8731 37.2827 38.096 37.5067C38.1756 37.5863 38.25 37.5517 38.3365 37.5204C38.5173 37.4556 38.6991 37.385 38.8864 37.3476C39.6834 37.1871 40.3617 37.4323 40.9318 37.9914C41.2136 38.2681 41.4777 38.563 41.7415 38.8572C42.368 39.5582 42.99 40.2628 43.612 40.9672C43.6877 41.0522 43.7633 41.1402 43.8189 41.238C43.9011 41.3832 43.8692 41.508 43.7462 41.6143C43.6239 41.7199 43.5032 41.7277 43.365 41.6274C43.2869 41.571 43.2158 41.5047 43.1458 41.438C42.4048 40.7385 41.6654 40.037 40.9248 39.3373C40.8421 39.259 40.7545 39.1859 40.667 39.1125C40.4841 38.9591 40.279 38.9479 40.076 39.0533C39.8541 39.1683 39.7054 39.3487 39.6906 39.6114C39.6811 39.7848 39.7839 39.9104 39.8947 40.0248C40.1819 40.3217 40.474 40.6134 40.7641 40.9072C41.2643 41.4135 41.7644 41.9191 42.2633 42.4268C42.3369 42.5017 42.4056 42.5831 42.4666 42.669C42.559 42.7982 42.5533 42.8923 42.4617 43.004C42.3762 43.1071 42.2273 43.1398 42.1046 43.0678C42.0302 43.0237 41.9648 42.9615 41.9022 42.9005C41.1146 42.1347 40.3286 41.3681 39.5422 40.6013C39.4856 40.546 39.4298 40.4894 39.3686 40.4398C39.0966 40.2199 38.8135 40.2431 38.5478 40.5046C38.3026 40.7457 38.2696 41.0797 38.4935 41.3321C38.7438 41.6143 39.016 41.8774 39.2794 42.1478C39.8247 42.7087 40.3712 43.2675 40.915 43.8292C40.9698 43.8856 41.0185 43.9498 41.0582 44.0173C41.1383 44.1527 41.1277 44.253 41.0336 44.3528C40.9306 44.4612 40.8002 44.4968 40.677 44.4285C40.5706 44.3687 40.4704 44.2943 40.3766 44.2162C39.4515 43.4462 38.5278 42.6747 37.6053 41.9011C37.457 41.7772 37.3147 41.6458 37.1778 41.51C36.6321 40.9688 36.4539 40.3023 36.6269 39.574C36.7106 39.2213 36.6517 38.9908 36.379 38.7802C36.2547 38.6844 36.1514 38.5614 36.0375 38.4519C36.0011 38.4139 35.96 38.381 35.9068 38.3348ZM17.7362 29.1209C17.7494 29.1695 17.7568 29.1858 17.7578 29.2026C17.8569 30.7885 18.3345 32.2517 19.2133 33.5738C19.5038 34.0109 19.8543 34.4086 20.1806 34.822C20.2323 34.8881 20.2887 34.9783 20.3952 34.9075C20.4579 34.8659 20.5196 34.8605 20.5517 34.9248C20.5739 34.9687 20.576 35.0473 20.5501 35.0852C20.5022 35.1553 20.5217 35.1922 20.5749 35.2382C20.7742 35.4106 20.964 35.5945 21.1711 35.757C22.6066 36.8866 24.2313 37.5628 26.0485 37.7625C26.1869 37.7778 26.244 37.8173 26.2567 37.9641C26.3052 38.5234 26.3726 39.082 26.4243 39.6414C26.4917 40.376 26.5555 41.1112 26.6126 41.8467C26.6714 42.6088 26.72 43.3718 26.7753 44.1339C26.7797 44.1941 26.788 44.262 26.8192 44.3098C26.8582 44.37 26.9277 44.4592 26.9747 44.4543C27.0462 44.4457 27.119 44.3753 27.1733 44.3156C27.2035 44.282 27.2012 44.2162 27.2051 44.1646C27.2552 43.463 27.3084 42.7622 27.3515 42.0607C27.437 40.6839 27.5607 39.3107 27.7247 37.9408C27.7395 37.8183 27.7805 37.7793 27.8998 37.77C28.4701 37.7261 29.0285 37.6127 29.5756 37.4489C30.9958 37.0228 32.2498 36.3056 33.3354 35.2945C33.4144 35.2207 33.5219 35.1628 33.4165 35.0168C33.3627 34.9419 33.4544 34.8341 33.5268 34.8785C33.706 34.9881 33.777 34.8553 33.8672 34.7577C35.1813 33.328 35.9554 31.6512 36.1703 29.7183C36.1925 29.5201 36.2113 29.322 36.2335 29.1078C36.7238 29.0729 37.1957 29.0365 37.6686 29.006C39.0354 28.9179 40.4025 28.8332 41.7689 28.7445C41.8552 28.7386 41.9443 28.7238 42.0253 28.6954C42.065 28.6817 42.1181 28.6236 42.1145 28.5911C42.1091 28.5404 42.0691 28.4849 42.0282 28.4497C41.9995 28.4249 41.9456 28.4249 41.9022 28.4218C41.1489 28.3673 40.396 28.3109 39.6426 28.2608C38.6875 28.1975 37.7324 28.1412 36.777 28.0795C36.6031 28.0684 36.4291 28.0472 36.2557 28.0304C36.2294 27.8506 36.1971 27.6713 36.1778 27.4909C35.9696 25.5609 35.2092 23.8744 33.9447 22.4095C33.8651 22.3172 33.7871 22.2228 33.7065 22.1273C33.653 22.169 33.6368 22.189 33.6156 22.1975C33.5624 22.2186 33.5071 22.2344 33.4529 22.2523C33.4508 22.1975 33.4271 22.13 33.4498 22.0899C33.5107 21.9834 33.4529 21.9269 33.3849 21.8658C33.143 21.649 32.9157 21.4133 32.6569 21.2187C31.2415 20.1551 29.659 19.5106 27.8882 19.3562C27.7697 19.3456 27.6948 19.3308 27.68 19.1853C27.5587 17.9972 27.4274 16.8101 27.3058 15.6225C27.2436 15.0198 27.1955 14.4149 27.1379 13.8116C27.1307 13.7336 27.1129 13.6545 27.0837 13.5822C27.071 13.5506 27.0209 13.5232 26.9843 13.5169C26.9636 13.5131 26.9191 13.5516 26.9119 13.5786C26.8825 13.6882 26.8518 13.7995 26.8412 13.9118C26.7474 14.9175 26.6653 15.9247 26.5635 16.9293C26.4865 17.6892 26.3827 18.447 26.2972 19.2063C26.2845 19.3197 26.237 19.3493 26.1316 19.3577C25.2767 19.4268 24.4532 19.6367 23.6551 19.9447C22.5112 20.3866 21.4922 21.0299 20.5971 21.8689C20.5306 21.9312 20.4532 21.9828 20.5523 22.0798C20.6045 22.131 20.6008 22.1859 20.5507 22.2418C20.4932 22.3056 20.4358 22.2845 20.3931 22.2349C20.3135 22.1426 20.2571 22.1954 20.1991 22.2544C20.1437 22.3109 20.09 22.3694 20.0377 22.4284C19.1664 23.4183 18.5369 24.5457 18.1347 25.7997C17.9191 26.4721 17.8132 27.1656 17.7736 27.8691C17.7673 27.9797 17.7525 28.0446 17.6171 28.0531C16.8458 28.0996 16.0751 28.1565 15.3044 28.2076C14.2443 28.2781 13.1842 28.3464 12.1241 28.4164C12.0719 28.42 12.0113 28.4148 11.9696 28.4391C11.9232 28.466 11.8679 28.5202 11.8642 28.5662C11.861 28.6078 11.9138 28.6712 11.9575 28.6949C12.0171 28.7264 12.0919 28.737 12.161 28.7417C13.0018 28.7977 13.8431 28.8536 14.6845 28.9031C15.403 28.9458 16.1226 28.976 16.8411 29.0213C17.1389 29.0409 17.4336 29.0866 17.7362 29.1209ZM19.859 21.0959C19.9513 21.0146 20.0309 20.9477 20.1074 20.8765C20.993 20.0533 22.0093 19.4384 23.1248 18.9833C23.8828 18.6743 24.6688 18.4633 25.4806 18.3473C25.7411 18.3099 25.7521 18.2962 25.7664 18.0367C25.789 17.6154 25.808 17.194 25.8281 16.7732C25.8323 16.6857 25.837 16.5976 25.8344 16.5095C25.8297 16.3598 25.8154 16.3492 25.6604 16.356C25.6256 16.3577 25.5903 16.3629 25.5555 16.3677C24.061 16.5665 22.6498 17.0205 21.3161 17.7261C19.4447 18.7165 17.9138 20.0833 16.7667 21.8642C15.6724 23.5633 15.0472 25.429 14.879 27.4457C14.8642 27.625 14.8811 27.6407 15.0672 27.6222C15.5385 27.5743 16.0097 27.5258 16.4811 27.4777C16.7409 27.4514 16.7462 27.4462 16.7662 27.1733C16.771 27.1124 16.7731 27.0506 16.7815 26.9894C16.9924 25.5245 17.4927 24.165 18.3097 22.931C18.5949 22.5007 18.9334 22.1052 19.2575 21.7018C19.4452 21.4687 19.4547 21.4755 19.2375 21.2598C19.1253 21.1486 19.0045 21.0452 18.8996 20.9276C18.78 20.7942 18.7837 20.6734 18.8907 20.5532C18.9887 20.443 19.1347 20.4219 19.2692 20.5184C19.3683 20.5896 19.4531 20.6803 19.5407 20.7662C19.645 20.8696 19.7446 20.9777 19.859 21.0959ZM34.1693 21.0605C34.2515 20.9687 34.322 20.8807 34.4029 20.8027C34.5098 20.6987 34.6178 20.5943 34.7366 20.5057C34.875 20.4029 35.0132 20.4309 35.1312 20.5648C35.2425 20.6913 35.241 20.7509 35.1077 20.9044C35.0385 20.9835 34.96 21.0542 34.8856 21.1285C34.4886 21.5246 34.4865 21.3838 34.853 21.8051C35.5514 22.6083 36.1039 23.4989 36.5125 24.4793C36.8787 25.3589 37.1414 26.2665 37.2295 27.2204C37.2499 27.4441 37.268 27.4539 37.4818 27.4757C37.8398 27.5115 38.1978 27.5457 38.5552 27.5826C38.6859 27.5958 38.8161 27.6201 38.9473 27.6276C39.1183 27.6377 39.1198 27.6327 39.1193 27.4529C39.1188 27.3738 39.1188 27.2937 39.1061 27.2162C39.0297 26.7483 38.9706 26.2765 38.8672 25.8145C38.4054 23.7484 37.4686 21.919 36.0538 20.3465C34.291 18.3869 32.107 17.1334 29.5361 16.5591C29.1344 16.4694 28.7237 16.4178 28.3162 16.3582C28.1532 16.3345 28.1323 16.3529 28.1395 16.499C28.1672 17.0516 28.2038 17.6038 28.2341 18.1565C28.2398 18.2677 28.2924 18.3025 28.3986 18.3099C28.5466 18.3204 28.6943 18.3457 28.8413 18.3711C30.6363 18.6838 32.2336 19.4236 33.6316 20.5917C33.8055 20.7378 33.9736 20.8897 34.1693 21.0605ZM39.1304 29.6336C39.0271 29.6336 38.9752 29.6287 38.9243 29.6341C38.4008 29.6899 37.8778 29.7496 37.3543 29.8023C37.2352 29.8144 37.224 29.8839 37.2135 29.9811C37.0792 31.2389 36.6765 32.4121 36.076 33.5195C35.6927 34.2257 35.2092 34.8615 34.6743 35.4586C34.5862 35.5568 34.5741 35.6242 34.6728 35.7211C34.8288 35.8751 34.9811 36.0345 35.1199 36.2037C35.2288 36.3371 35.2014 36.459 35.0674 36.565C34.9525 36.6562 34.8272 36.6668 34.6805 36.5559C34.5346 36.4458 34.4101 36.3076 34.2758 36.1821C34.1249 36.0413 34.1177 36.0402 33.9785 36.1725C33.5572 36.5729 33.1006 36.9267 32.6163 37.2484C31.3742 38.0731 30.0126 38.5831 28.5461 38.8242C28.2873 38.8668 28.2862 38.8632 28.2656 39.1384C28.2315 39.5941 28.1966 40.0496 28.1643 40.5051C28.1586 40.5896 28.1633 40.6747 28.1633 40.7584C28.2139 40.7669 28.2392 40.7751 28.264 40.7741C28.3521 40.7715 28.4402 40.771 28.5272 40.7604C29.4276 40.6509 30.3093 40.462 31.1575 40.1347C32.699 39.5386 34.0792 38.6865 35.2704 37.5331C36.1465 36.6846 36.9084 35.7449 37.5224 34.6913C38.25 33.443 38.7376 32.1031 38.9863 30.6787C39.0454 30.3438 39.0798 30.0049 39.1304 29.6336ZM19.839 36.057C19.7304 36.1621 19.6466 36.2518 19.5538 36.3309C19.441 36.4267 19.3271 36.5254 19.2012 36.6019C19.092 36.6683 18.9602 36.6247 18.8749 36.5213C18.7974 36.4272 18.799 36.3254 18.8654 36.2301C18.9149 36.1588 18.9766 36.0955 19.0372 36.0325C19.1405 35.9247 19.246 35.8193 19.353 35.7149C19.4231 35.6462 19.4284 35.5818 19.3551 35.5129C19.3229 35.4829 19.2934 35.4501 19.2644 35.4175C17.8859 33.8554 16.9982 32.0677 16.7667 29.979C16.7557 29.8767 16.7262 29.8144 16.6165 29.8033C16.0841 29.7491 15.5516 29.6909 15.0192 29.6377C14.9729 29.633 14.9238 29.6545 14.8779 29.6636C14.8932 29.8372 14.9017 29.9948 14.9217 30.1508C15.0778 31.3791 15.4199 32.556 15.9502 33.6725C16.9713 35.8219 18.4478 37.5868 20.45 38.888C22.0193 39.9078 23.7337 40.5421 25.6003 40.7436C25.8323 40.769 25.839 40.7674 25.8233 40.5294C25.7906 40.03 25.7458 39.5319 25.7157 39.0319C25.7068 38.8857 25.6425 38.8324 25.506 38.8226C25.3926 38.8141 25.2809 38.7872 25.1686 38.766C23.1786 38.3901 21.4289 37.5357 19.9497 36.143C19.9191 36.113 19.8823 36.0903 19.839 36.057ZM40.0602 18.7349C40.1078 18.7291 40.1692 18.7259 40.2294 18.7144C40.9543 18.5762 41.5853 18.2561 42.1173 17.7409C42.6138 17.2599 42.9544 16.6872 43.136 16.0207C43.1892 15.8256 43.147 15.7212 43.0129 15.6711C42.8825 15.6225 42.7819 15.6837 42.698 15.8725C42.6522 15.9764 42.6207 16.0871 42.577 16.1921C42.1124 17.3016 41.3174 18.0046 40.1088 18.1986C40.0571 18.2071 40.0055 18.2186 39.9559 18.2361C39.8213 18.283 39.7483 18.3927 39.7666 18.5129C39.7878 18.6469 39.8967 18.7333 40.0602 18.7349ZM40.8772 12.4442C40.8046 12.4479 40.7692 12.448 40.7344 12.4516C40.6212 12.4643 40.5078 12.4759 40.3955 12.4928C39.3285 12.6531 38.5137 13.2157 37.8858 14.0727C37.8424 14.1317 37.8124 14.2187 37.8176 14.2894C37.8246 14.3838 37.871 14.4777 37.9811 14.5056C38.0818 14.5309 38.1714 14.5151 38.2414 14.4292C38.385 14.252 38.5157 14.0621 38.6758 13.9018C39.2511 13.3265 39.9554 13.0285 40.7636 12.9658C40.8756 12.9568 40.994 12.9473 41.0974 12.9067C41.2495 12.8471 41.2737 12.6894 41.1718 12.5603C41.0847 12.4495 40.9661 12.4369 40.8772 12.4442ZM16.1057 17.878C16.0335 17.9481 15.9549 18.0019 15.9075 18.0757C15.8458 18.1722 15.9006 18.2624 15.9729 18.3331C16.3482 18.6996 16.722 19.0682 17.1036 19.4279C17.2433 19.5597 17.267 19.5476 17.422 19.3851C17.5354 19.2659 17.5454 19.2159 17.4299 19.0988C17.0678 18.7312 16.7003 18.3684 16.3303 18.0082C16.2781 17.9566 16.2001 17.9312 16.1057 17.878ZM38.0154 18.1801C38.0007 18.1353 37.9937 18.1005 37.978 18.0705C37.891 17.9017 37.7324 17.8627 37.5911 17.994C37.3669 18.2028 37.1561 18.4254 36.9394 18.6421C36.7971 18.7845 36.6543 18.9263 36.5125 19.0693C36.4239 19.1584 36.4239 19.248 36.505 19.3456C36.6517 19.5212 36.7101 19.5375 36.8847 19.3719C37.2279 19.0471 37.5593 18.7096 37.8914 18.3731C37.9452 18.3199 37.9759 18.244 38.0154 18.1801ZM36.7044 37.3207C36.6396 37.4013 36.5747 37.4799 36.5125 37.561C36.4554 37.6349 36.5009 37.6951 36.5489 37.7478C36.6559 37.8643 36.7656 37.9783 36.8762 38.0912C37.0422 38.2604 37.2093 38.4291 37.378 38.5952C37.4467 38.6627 37.5167 38.7317 37.5952 38.7862C37.7081 38.8637 37.8321 38.8394 37.9258 38.7376C38.0196 38.6358 38.0327 38.5552 37.9204 38.4377C37.6236 38.1263 37.3142 37.8269 37.0079 37.5248C36.9586 37.4757 36.902 37.4323 36.8452 37.3913C36.8108 37.3664 36.7692 37.3522 36.7044 37.3207ZM17.4821 37.6292C17.4025 37.5346 17.3335 37.4341 17.2428 37.3592C17.2212 37.3411 17.1168 37.3962 17.0709 37.4393C16.7631 37.7266 16.4594 38.0199 16.1563 38.3126C16.1125 38.3547 16.0757 38.4048 16.0372 38.4529C15.966 38.5415 15.9787 38.6306 16.0372 38.7198C16.1321 38.8632 16.2976 38.8815 16.442 38.7392C16.7546 38.4317 17.0572 38.1131 17.3619 37.7974C17.4036 37.7535 17.4325 37.6992 17.4821 37.6292Z" fill="white"/>
<path d="M26.9847 39.5941C26.9716 39.4995 26.954 39.4063 26.9463 39.3114C26.8607 38.2787 26.7758 37.2457 26.6921 36.2128C26.6198 35.3199 26.5493 34.4267 26.4769 33.5332C26.4602 33.326 26.4563 33.3306 26.2535 33.2849C25.9198 33.2094 25.575 33.1614 25.2577 33.0418C23.7811 32.4855 22.8069 31.4461 22.3557 29.9284C22.2934 29.7183 22.2365 29.5028 22.2159 29.2866C22.2002 29.1215 22.1221 29.083 21.9851 29.0724C21.8011 29.0582 21.6181 29.0349 21.4347 29.0192C20.7352 28.96 20.0346 28.9083 19.3356 28.8424C18.655 28.7781 17.9755 28.7001 17.296 28.6257C17.2185 28.6174 17.1426 28.5931 17.063 28.5404C17.3556 28.5055 17.6476 28.4686 17.9407 28.437C18.4115 28.3859 18.8822 28.3337 19.3535 28.2898C19.8422 28.2446 20.3319 28.2092 20.8211 28.1676C21.2323 28.1327 21.6424 28.0916 22.0536 28.0598C22.169 28.051 22.1928 27.9913 22.2038 27.8901C22.2487 27.4883 22.3093 27.0886 22.4558 26.7083C23.119 24.994 24.3589 23.9709 26.1619 23.6307C26.4976 23.5675 26.4953 23.5765 26.524 23.2326C26.603 22.2787 26.6872 21.3252 26.767 20.3712C26.8303 19.6098 26.8897 18.8477 26.9514 18.0863C26.9555 18.0356 26.9636 17.985 27.0083 17.9286C27.0147 17.9539 27.0242 17.9792 27.0263 18.005C27.0891 18.7223 27.1534 19.4394 27.2128 20.1566C27.2624 20.752 27.3058 21.3474 27.352 21.9428C27.3895 22.4157 27.4269 22.8883 27.4664 23.3607C27.4822 23.5517 27.4837 23.5585 27.6785 23.5891C28.4169 23.7056 29.107 23.9509 29.7279 24.3696C30.8654 25.1363 31.5403 26.2052 31.7818 27.5526C31.8092 27.7066 31.7901 27.9043 31.8797 28.0019C31.9556 28.0851 32.1571 28.0567 32.3035 28.072C32.7922 28.1221 33.2809 28.1701 33.7695 28.2182C34.4418 28.2841 35.1144 28.3474 35.7864 28.4143C36.1607 28.4518 36.5352 28.4954 36.9125 28.5866C36.8214 28.6011 36.7307 28.619 36.639 28.629C35.836 28.7143 35.0338 28.8013 34.2303 28.8804C33.7502 28.9279 33.2682 28.9613 32.7876 29.0019C32.5166 29.0249 32.2457 29.0556 31.9742 29.0724C31.8435 29.0804 31.8017 29.1326 31.7844 29.2633C31.6831 30.0136 31.4422 30.7141 30.9953 31.3342C30.2621 32.3519 29.2604 32.9511 28.0499 33.2242C27.9218 33.2531 27.7911 33.2733 27.6604 33.2844C27.5524 33.2939 27.5101 33.3381 27.5028 33.4477C27.477 33.8422 27.4442 34.2362 27.4117 34.63C27.2988 35.9779 27.1834 37.3258 27.0715 38.6738C27.0462 38.9802 27.033 39.2877 27.0142 39.5946C27.0051 39.5951 26.9946 39.5946 26.9847 39.5941ZM25.1881 28.5287C25.1855 29.5465 26.002 30.3733 27.0168 30.3813C27.9889 30.3888 28.8297 29.547 28.8286 28.5678C28.827 27.5673 27.9995 26.7326 27.0072 26.7315C26.0066 26.731 25.1907 27.5374 25.1881 28.5287ZM23.2123 26.5649C23.2639 26.6351 23.303 26.7284 23.3731 26.7746C23.4674 26.837 23.5786 26.8155 23.6546 26.7194C23.7031 26.6576 23.7426 26.5892 23.7837 26.5217C23.857 26.4026 23.9182 26.2732 24.003 26.1631C24.5876 25.4037 25.3441 24.9159 26.2915 24.7361C26.3594 24.7234 26.43 24.7044 26.4886 24.6696C26.5844 24.6127 26.641 24.5225 26.6257 24.406C26.612 24.3037 26.5023 24.2109 26.3801 24.2029C26.3024 24.1982 26.2212 24.2045 26.1453 24.2225C24.9034 24.5162 23.9445 25.1927 23.3235 26.3217C23.2866 26.3899 23.2587 26.4631 23.2123 26.5649Z" fill="white"/>
<path d="M21.9856 32.863C22.3093 32.8594 22.5534 33.095 22.5607 33.4188C22.5681 33.7347 22.3272 33.9768 21.9967 33.9851C21.6756 33.9937 21.451 33.759 21.4479 33.4136C21.4452 33.086 21.6598 32.8666 21.9856 32.863Z" fill="white"/>
<path d="M32.0031 32.8635C32.3025 32.863 32.5556 33.1123 32.5618 33.4146C32.5683 33.7156 32.2772 34.0021 31.9662 33.9993C31.6699 33.9967 31.4401 33.7469 31.438 33.4247C31.4354 33.0981 31.672 32.864 32.0031 32.8635Z" fill="white"/>
<path d="M31.992 24.1634C31.679 24.1644 31.4571 23.9366 31.4543 23.6123C31.4517 23.2843 31.6885 23.046 32.0132 23.0502C32.311 23.0539 32.5708 23.3265 32.5708 23.6345C32.5703 23.9066 32.2904 24.1624 31.992 24.1634Z" fill="white"/>
<path d="M21.946 24.1687C21.6525 24.1671 21.4463 23.9361 21.45 23.6123C21.4532 23.2891 21.6756 23.0555 21.9835 23.0523C22.2934 23.0497 22.5507 23.3023 22.5554 23.6145C22.5597 23.9182 22.2819 24.1708 21.946 24.1687Z" fill="white"/>
<path d="M57.5436 23.0605C58.0261 23.0605 58.3983 23.1137 58.66 23.22C58.9217 23.3182 59.1466 23.4246 59.3347 23.5391C59.4329 23.5964 59.5106 23.6414 59.5678 23.6741C59.6333 23.6987 59.6946 23.7109 59.7519 23.7109C59.8337 23.7109 59.8909 23.6659 59.9236 23.5759C59.9645 23.4859 59.9972 23.3509 60.0218 23.1709H60.3039C60.2958 23.3264 60.2835 23.5146 60.2671 23.7355C60.259 23.9482 60.2508 24.2305 60.2426 24.5823C60.2426 24.9341 60.2426 25.3964 60.2426 25.9691H59.9604C59.9277 25.5437 59.8296 25.1305 59.666 24.7296C59.5024 24.3287 59.2693 24.0014 58.9667 23.7477C58.6723 23.4859 58.3083 23.355 57.8748 23.355C57.4822 23.355 57.1591 23.4655 56.9056 23.6864C56.6521 23.9073 56.5253 24.2141 56.5253 24.6068C56.5253 24.9341 56.6071 25.2164 56.7707 25.4537C56.9342 25.6827 57.1714 25.9077 57.4822 26.1287C57.8012 26.3496 58.1856 26.6155 58.6354 26.9264C59.028 27.18 59.3797 27.4337 59.6905 27.6873C60.0013 27.9409 60.2508 28.2273 60.4389 28.5464C60.627 28.8655 60.7211 29.2459 60.7211 29.6877C60.7211 30.2277 60.5779 30.6736 60.2917 31.0255C60.0136 31.3773 59.6455 31.6432 59.1875 31.8232C58.7295 31.995 58.2265 32.0809 57.6785 32.0809C57.1714 32.0809 56.7666 32.0318 56.4639 31.9337C56.1613 31.8355 55.9078 31.7332 55.7033 31.6268C55.5234 31.5123 55.3843 31.455 55.2862 31.455C55.2044 31.455 55.143 31.5 55.1022 31.59C55.0694 31.68 55.0408 31.815 55.0163 31.995H54.7341C54.7505 31.7987 54.7586 31.5696 54.7586 31.3077C54.7668 31.0459 54.7709 30.7064 54.7709 30.2891C54.7791 29.8637 54.7832 29.3277 54.7832 28.6814H55.0653C55.0981 29.2214 55.188 29.7287 55.3353 30.2032C55.4907 30.6696 55.7238 31.0459 56.0346 31.3323C56.3535 31.6186 56.7747 31.7618 57.2982 31.7618C57.5845 31.7618 57.838 31.7127 58.0588 31.6146C58.2878 31.5082 58.4719 31.3527 58.6109 31.1482C58.75 30.9437 58.8195 30.69 58.8195 30.3873C58.8195 30.0437 58.7377 29.745 58.5741 29.4914C58.4187 29.2377 58.202 29.0005 57.9239 28.7796C57.654 28.5587 57.3391 28.3337 56.9792 28.1046C56.5948 27.8509 56.2349 27.5973 55.8996 27.3437C55.5643 27.09 55.2944 26.7996 55.0899 26.4723C54.8936 26.145 54.7954 25.7564 54.7954 25.3064C54.7954 24.7909 54.9222 24.3696 55.1758 24.0423C55.4375 23.7068 55.7769 23.4614 56.194 23.3059C56.6193 23.1423 57.0692 23.0605 57.5436 23.0605ZM63.2115 31.995C62.8435 31.995 62.5368 31.9255 62.2914 31.7864C62.0461 31.6473 61.8661 31.4632 61.7516 31.2341C61.6371 30.9968 61.5799 30.7391 61.5799 30.4609C61.5799 30.1091 61.6576 29.8227 61.8129 29.6018C61.9765 29.3809 62.1851 29.2009 62.4386 29.0618C62.6922 28.9227 62.958 28.8082 63.2361 28.7182C63.5223 28.6282 63.7922 28.5423 64.0458 28.4605C64.3075 28.3705 64.5161 28.2682 64.6715 28.1537C64.8351 28.0309 64.9169 27.8755 64.9169 27.6873V26.73C64.9169 26.5173 64.88 26.3291 64.8064 26.1655C64.741 25.9937 64.6347 25.8627 64.4875 25.7727C64.3484 25.6827 64.1644 25.6377 63.9354 25.6377C63.7718 25.6377 63.6082 25.6623 63.4446 25.7114C63.2811 25.7523 63.1461 25.8259 63.0398 25.9323C63.2688 26.0141 63.4446 26.1409 63.5673 26.3127C63.6982 26.4764 63.7636 26.6646 63.7636 26.8773C63.7636 27.1555 63.6655 27.3764 63.4692 27.54C63.2811 27.7037 63.0561 27.7855 62.7944 27.7855C62.5 27.7855 62.2751 27.6955 62.1197 27.5155C61.9724 27.3273 61.8988 27.1023 61.8988 26.8405C61.8988 26.6032 61.9561 26.4068 62.0706 26.2514C62.1933 26.0959 62.3609 25.9487 62.5736 25.8096C62.8026 25.6787 63.0766 25.5764 63.3956 25.5027C63.7227 25.4291 64.0744 25.3923 64.4507 25.3923C64.8269 25.3923 65.1663 25.4332 65.4689 25.515C65.7715 25.5887 66.0251 25.7277 66.2296 25.9323C66.4177 26.1205 66.5404 26.3537 66.5976 26.6318C66.6549 26.9018 66.6835 27.2455 66.6835 27.6627V31.0009C66.6835 31.2055 66.7039 31.3487 66.7448 31.4305C66.7857 31.5041 66.8553 31.5409 66.9534 31.5409C67.027 31.5409 67.0965 31.5205 67.162 31.4796C67.2356 31.4387 67.3133 31.3896 67.3951 31.3323L67.5177 31.5409C67.346 31.6882 67.1456 31.8027 66.9166 31.8846C66.6958 31.9582 66.4463 31.995 66.1682 31.995C65.8656 31.995 65.6243 31.9541 65.4444 31.8723C65.2645 31.7823 65.1336 31.6637 65.0518 31.5164C64.9782 31.3691 64.9414 31.1973 64.9414 31.0009C64.7451 31.3118 64.5079 31.5573 64.2298 31.7373C63.9517 31.9091 63.6123 31.995 63.2115 31.995ZM64.0826 31.2096C64.2462 31.2096 64.3934 31.1727 64.5243 31.0991C64.6633 31.0173 64.7942 30.8864 64.9169 30.7064V28.1905C64.8432 28.3132 64.741 28.4237 64.6101 28.5218C64.4793 28.62 64.3402 28.7223 64.193 28.8287C64.0458 28.9268 63.9027 29.0373 63.7636 29.16C63.6328 29.2827 63.5264 29.4341 63.4446 29.6141C63.3629 29.7941 63.322 30.0109 63.322 30.2646C63.322 30.5837 63.3915 30.8209 63.5305 30.9764C63.6696 31.1318 63.8536 31.2096 64.0826 31.2096ZM72.0763 25.3923C72.7142 25.3923 73.2418 25.6541 73.6589 26.1777C74.0842 26.6932 74.2968 27.4909 74.2968 28.5709C74.2968 29.4218 74.166 30.105 73.9042 30.6205C73.6507 31.1359 73.3113 31.5082 72.886 31.7373C72.4607 31.9664 71.9945 32.0809 71.4874 32.0809C71.152 32.0809 70.8412 32.0237 70.555 31.9091C70.2687 31.7946 70.0234 31.6064 69.8189 31.3446L69.9906 31.2832C70.1379 31.4632 70.3096 31.5982 70.5059 31.6882C70.7104 31.7782 70.9108 31.8232 71.1071 31.8232C71.5569 31.8232 71.8922 31.5696 72.1131 31.0623C72.3339 30.555 72.4443 29.7818 72.4443 28.7427C72.4443 28.0391 72.3993 27.4827 72.3094 27.0737C72.2276 26.6564 72.1049 26.3618 71.9413 26.19C71.7777 26.01 71.5814 25.92 71.3524 25.92C71.0662 25.92 70.8044 26.0387 70.5673 26.2759C70.3301 26.505 70.1951 26.8282 70.1624 27.2455L70.1011 26.8159C70.2483 26.3496 70.4977 25.9977 70.8494 25.7605C71.2011 25.515 71.6101 25.3923 72.0763 25.3923ZM70.1992 22.3118V31.6637C69.9947 31.6309 69.7862 31.6309 69.5735 31.6637C69.3609 31.6964 69.1646 31.7537 68.9846 31.8355C68.8047 31.9091 68.6534 31.9991 68.5307 32.1055L68.3467 31.995C68.3794 31.8805 68.3998 31.7659 68.408 31.6514C68.4244 31.5368 68.4326 31.4223 68.4326 31.3077V23.7846C68.4326 23.4164 68.3753 23.1464 68.2608 22.9746C68.1545 22.7946 67.95 22.7046 67.6474 22.7046V22.4468C67.9091 22.4714 68.1627 22.4837 68.408 22.4837C68.7434 22.4837 69.0623 22.4714 69.365 22.4468C69.6676 22.4141 69.9457 22.3691 70.1992 22.3118ZM78.2219 25.3923C78.819 25.3923 79.3424 25.5027 79.7923 25.7237C80.2421 25.9446 80.5938 26.3005 80.8473 26.7914C81.1009 27.2823 81.2276 27.9327 81.2276 28.7427C81.2276 29.5527 81.1009 30.2032 80.8473 30.6941C80.5938 31.1768 80.2421 31.5287 79.7923 31.7496C79.3424 31.9705 78.819 32.0809 78.2219 32.0809C77.6412 32.0809 77.1218 31.9705 76.6638 31.7496C76.214 31.5287 75.8582 31.1768 75.5965 30.6941C75.3429 30.2032 75.2161 29.5527 75.2161 28.7427C75.2161 27.9327 75.3429 27.2823 75.5965 26.7914C75.8582 26.3005 76.214 25.9446 76.6638 25.7237C77.1218 25.5027 77.6412 25.3923 78.2219 25.3923ZM78.2219 25.6377C77.8947 25.6377 77.6207 25.8832 77.3999 26.3741C77.1791 26.8568 77.0687 27.6464 77.0687 28.7427C77.0687 29.8391 77.1791 30.6287 77.3999 31.1114C77.6207 31.5941 77.8947 31.8355 78.2219 31.8355C78.5572 31.8355 78.8312 31.5941 79.0439 31.1114C79.2647 30.6287 79.3751 29.8391 79.3751 28.7427C79.3751 27.6464 79.2647 26.8568 79.0439 26.3741C78.8312 25.8832 78.5572 25.6377 78.2219 25.6377ZM86.2139 25.3923C86.4757 25.3923 86.6883 25.4496 86.8519 25.5641C87.0155 25.6705 87.1341 25.8096 87.2077 25.9814C87.2895 26.1532 87.3303 26.3332 87.3303 26.5214C87.3303 26.8241 87.2404 27.0737 87.0604 27.27C86.8887 27.4582 86.6597 27.5523 86.3734 27.5523C86.0872 27.5523 85.8622 27.4827 85.6987 27.3437C85.5433 27.1964 85.4656 27.0041 85.4656 26.7668C85.4656 26.5377 85.5146 26.3496 85.6128 26.2023C85.7191 26.0468 85.85 25.9159 86.0054 25.8096C85.8909 25.7768 85.7764 25.7809 85.6618 25.8218C85.5064 25.8464 85.3592 25.9118 85.2202 26.0182C85.0811 26.1164 84.9626 26.2432 84.8644 26.3987C84.7663 26.5459 84.6886 26.7096 84.6313 26.8896C84.5741 27.0614 84.5454 27.2291 84.5454 27.3927V30.645C84.5454 31.0377 84.6395 31.3037 84.8276 31.4427C85.0239 31.5818 85.3142 31.6514 85.6987 31.6514V31.9091C85.5105 31.9009 85.2365 31.8927 84.8767 31.8846C84.5168 31.8682 84.1406 31.86 83.748 31.86C83.4208 31.86 83.0896 31.8682 82.7542 31.8846C82.4189 31.8927 82.1654 31.9009 81.9936 31.9091V31.6514C82.2799 31.6514 82.4803 31.59 82.5948 31.4673C82.7174 31.3446 82.7788 31.1114 82.7788 30.7677V26.9018C82.7788 26.5337 82.7215 26.2637 82.607 26.0918C82.5007 25.9118 82.2962 25.8218 81.9936 25.8218V25.5641C82.2553 25.5887 82.5089 25.6009 82.7542 25.6009C83.0978 25.6009 83.4167 25.5887 83.7112 25.5641C84.0138 25.5314 84.2919 25.4864 84.5454 25.4291V26.5705C84.6436 26.3496 84.7744 26.1491 84.938 25.9691C85.1016 25.7891 85.2897 25.65 85.5024 25.5518C85.715 25.4455 85.9522 25.3923 86.2139 25.3923ZM91.4746 23.1955C91.7936 23.1955 92.0512 23.22 92.2475 23.2691C92.4438 23.31 92.6115 23.3714 92.7505 23.4532C92.8814 23.5105 93 23.5841 93.1063 23.6741C93.2208 23.7641 93.3149 23.8746 93.3885 24.0055C93.4621 24.1364 93.4989 24.2837 93.4989 24.4473C93.4989 24.6927 93.4048 24.8891 93.2167 25.0364C93.0286 25.1837 92.8078 25.2573 92.5542 25.2573C92.3089 25.2573 92.0962 25.1959 91.9163 25.0732C91.7445 24.9505 91.6586 24.7582 91.6586 24.4964C91.6586 24.2918 91.7322 24.1077 91.8795 23.9441C92.0267 23.7723 92.2148 23.6659 92.4438 23.625C92.3866 23.5596 92.2802 23.5064 92.1248 23.4655C91.9776 23.4246 91.814 23.4041 91.6341 23.4041C91.2088 23.4041 90.8448 23.5391 90.5422 23.8091C90.2478 24.0709 90.1005 24.4718 90.1005 25.0118C90.1005 25.2 90.1333 25.4005 90.1987 25.6132C90.2641 25.8259 90.3909 26.0427 90.579 26.2637C90.7181 26.2309 90.8448 26.2064 90.9593 26.19C91.082 26.1737 91.1842 26.1655 91.266 26.1655C91.4133 26.1655 91.5237 26.1982 91.5973 26.2637C91.6791 26.3209 91.72 26.3987 91.72 26.4968C91.72 26.5705 91.6873 26.6318 91.6218 26.6809C91.5564 26.73 91.4746 26.7546 91.3765 26.7546C91.2374 26.7546 91.0943 26.7177 90.9471 26.6441C90.7998 26.5623 90.6812 26.4927 90.5913 26.4355C90.2069 26.6318 89.892 26.8855 89.6466 27.1964C89.4094 27.4991 89.2908 27.9082 89.2908 28.4237C89.2908 28.9637 89.4381 29.4096 89.7325 29.7614C90.0269 30.105 90.44 30.3668 90.9716 30.5468C91.5114 30.7187 92.1453 30.8046 92.8732 30.8046C93.2821 30.8046 93.687 30.7596 94.0878 30.6696C94.4885 30.5796 94.8484 30.4446 95.1674 30.2646C95.4945 30.0846 95.7563 29.8637 95.9526 29.6018C96.1489 29.3318 96.247 29.0209 96.247 28.6691C96.247 28.5382 96.2266 28.3746 96.1857 28.1782C96.1529 27.9737 96.0671 27.7732 95.928 27.5768C95.789 27.3723 95.56 27.2046 95.241 27.0737L95.3269 26.9632C95.7685 27.1023 96.1039 27.3641 96.3329 27.7487C96.5619 28.1332 96.6764 28.575 96.6764 29.0741C96.6764 29.6468 96.5005 30.1623 96.1489 30.6205C95.7972 31.0705 95.3023 31.4264 94.6644 31.6882C94.0346 31.95 93.2944 32.0809 92.4438 32.0809C91.765 32.0809 91.1474 32.0114 90.5913 31.8723C90.0433 31.7332 89.5689 31.5327 89.1682 31.2709C88.7756 31.0009 88.4689 30.6777 88.248 30.3014C88.0354 29.925 87.929 29.4996 87.929 29.025C87.929 28.5668 88.0231 28.1782 88.2112 27.8591C88.4075 27.5318 88.6447 27.2659 88.9228 27.0614C89.2009 26.8487 89.4789 26.685 89.757 26.5705C90.0351 26.4559 90.2559 26.3782 90.4195 26.3373C90.166 26.2309 89.9329 26.1082 89.7202 25.9691C89.5158 25.8218 89.3481 25.65 89.2172 25.4537C89.0945 25.2573 89.0332 25.0364 89.0332 24.7909C89.0332 24.5291 89.1027 24.3 89.2418 24.1037C89.3808 23.8991 89.5648 23.7314 89.7938 23.6005C90.031 23.4696 90.2928 23.3714 90.579 23.3059C90.8735 23.2323 91.172 23.1955 91.4746 23.1955ZM96.2961 23.0482C96.8768 23.0482 97.3471 23.1996 97.7069 23.5023C98.0668 23.805 98.2467 24.2305 98.2467 24.7787C98.2467 25.1959 98.1445 25.5477 97.94 25.8341C97.7437 26.1205 97.4575 26.3537 97.0812 26.5337C96.7132 26.7137 96.2715 26.8568 95.7563 26.9632C95.6418 27.0041 95.4986 27.0532 95.3269 27.1105C95.1551 27.1596 94.9793 27.2087 94.7993 27.2577C94.6194 27.3068 94.4436 27.3559 94.2718 27.405C94.1082 27.4541 93.9651 27.495 93.8424 27.5277C93.2044 27.6668 92.7137 27.8264 92.3702 28.0064C92.0267 28.1782 91.8549 28.4155 91.8549 28.7182C91.8549 28.9227 91.9204 29.0987 92.0512 29.2459C92.1903 29.3932 92.362 29.5077 92.5665 29.5896C92.771 29.6714 92.9754 29.7123 93.1799 29.7123C93.2372 29.7123 93.2985 29.7082 93.3639 29.7C93.4294 29.6837 93.4907 29.6673 93.548 29.6509C93.6052 29.6264 93.6461 29.6059 93.6706 29.5896C93.4662 29.5241 93.3108 29.4218 93.2044 29.2827C93.1063 29.1355 93.0572 28.9677 93.0572 28.7796C93.0572 28.5177 93.1513 28.3173 93.3394 28.1782C93.5275 28.0391 93.7606 27.9696 94.0387 27.9696C94.3331 27.9696 94.5621 28.0473 94.7257 28.2027C94.8975 28.3582 94.9834 28.5587 94.9834 28.8041C94.9834 29.0577 94.9057 29.2705 94.7503 29.4423C94.5949 29.6059 94.3863 29.7287 94.1246 29.8105C93.8628 29.8841 93.5684 29.9209 93.2412 29.9209C92.9223 29.9209 92.6196 29.8637 92.3334 29.7491C92.0553 29.6346 91.8304 29.4627 91.6586 29.2337C91.4951 28.9964 91.4133 28.7018 91.4133 28.35C91.4133 27.9164 91.5237 27.5564 91.7445 27.27C91.9653 26.9755 92.2802 26.7341 92.6892 26.5459C93.1063 26.3496 93.597 26.1982 94.1614 26.0918C94.3331 26.0509 94.5212 26.0059 94.7257 25.9568C94.9384 25.8996 95.1551 25.8423 95.3759 25.785C95.5968 25.7277 95.8012 25.6664 95.9894 25.6009C96.5782 25.4537 97.0322 25.29 97.3512 25.11C97.6783 24.93 97.8419 24.6887 97.8419 24.3859C97.8419 24.165 97.7724 23.9727 97.6333 23.8091C97.5025 23.6373 97.3307 23.5064 97.118 23.4164C96.9054 23.3182 96.6846 23.2691 96.4556 23.2691C96.382 23.2691 96.3124 23.2732 96.247 23.2814C96.1897 23.2896 96.1407 23.3059 96.0998 23.3305C96.3043 23.4041 96.4556 23.5146 96.5537 23.6618C96.6519 23.8091 96.7009 23.9564 96.7009 24.1037C96.7009 24.3573 96.6069 24.5537 96.4188 24.6927C96.2306 24.8237 95.9975 24.8891 95.7195 24.8891C95.4414 24.8891 95.2124 24.8196 95.0324 24.6805C94.8525 24.5332 94.7625 24.3327 94.7625 24.0791C94.7625 23.8582 94.8239 23.6741 94.9465 23.5268C95.0774 23.3714 95.2574 23.2527 95.4864 23.1709C95.7154 23.0891 95.9853 23.0482 96.2961 23.0482ZM102.448 23.1955L105.429 30.8782C105.544 31.1727 105.671 31.3773 105.81 31.4918C105.957 31.5982 106.088 31.6555 106.202 31.6637V31.9091C105.957 31.8927 105.667 31.8846 105.331 31.8846C105.004 31.8764 104.673 31.8723 104.338 31.8723C103.961 31.8723 103.606 31.8764 103.27 31.8846C102.935 31.8846 102.669 31.8927 102.473 31.9091V31.6637C102.89 31.6473 103.152 31.5777 103.258 31.455C103.372 31.3241 103.348 31.05 103.184 30.6327L101.099 24.9259L101.32 24.6068L99.4548 29.4668C99.2748 29.9168 99.1644 30.285 99.1235 30.5714C99.0908 30.8577 99.1113 31.0787 99.1849 31.2341C99.2667 31.3896 99.3934 31.5 99.5652 31.5655C99.7451 31.6227 99.9578 31.6555 100.203 31.6637V31.9091C99.9332 31.8927 99.6756 31.8846 99.4302 31.8846C99.1849 31.8764 98.9354 31.8723 98.6819 31.8723C98.5019 31.8723 98.3302 31.8764 98.1666 31.8846C98.0112 31.8846 97.8722 31.8927 97.7495 31.9091V31.6637C97.9212 31.6309 98.0971 31.5205 98.277 31.3323C98.4569 31.1441 98.6328 30.825 98.8045 30.375L101.602 23.1955C101.733 23.2037 101.872 23.2077 102.019 23.2077C102.174 23.2077 102.317 23.2037 102.448 23.1955ZM103.307 28.3746V28.62H99.6511L99.7737 28.3746H103.307ZM110.974 25.3923C111.318 25.3923 111.596 25.4373 111.809 25.5273C112.029 25.6091 112.201 25.7237 112.324 25.8709C112.455 26.0264 112.549 26.2268 112.606 26.4723C112.671 26.7177 112.704 27.0491 112.704 27.4664V30.7677C112.704 31.1114 112.761 31.3446 112.876 31.4673C112.999 31.59 113.203 31.6514 113.489 31.6514V31.9091C113.334 31.9009 113.101 31.8927 112.79 31.8846C112.479 31.8682 112.173 31.86 111.87 31.86C111.559 31.86 111.252 31.8682 110.95 31.8846C110.655 31.8927 110.43 31.9009 110.275 31.9091V31.6514C110.52 31.6514 110.692 31.59 110.79 31.4673C110.888 31.3446 110.938 31.1114 110.938 30.7677V26.9509C110.938 26.7464 110.917 26.5705 110.876 26.4232C110.835 26.2677 110.762 26.1491 110.655 26.0673C110.549 25.9773 110.39 25.9323 110.177 25.9323C109.956 25.9323 109.752 25.9937 109.563 26.1164C109.384 26.2391 109.236 26.4109 109.122 26.6318C109.016 26.8446 108.962 27.0859 108.962 27.3559V30.7677C108.962 31.1114 109.011 31.3446 109.11 31.4673C109.216 31.59 109.388 31.6514 109.625 31.6514V31.9091C109.478 31.9009 109.261 31.8927 108.975 31.8846C108.697 31.8682 108.406 31.86 108.104 31.86C107.793 31.86 107.474 31.8682 107.147 31.8846C106.819 31.8927 106.574 31.9009 106.411 31.9091V31.6514C106.697 31.6514 106.897 31.59 107.012 31.4673C107.134 31.3446 107.196 31.1114 107.196 30.7677V26.9018C107.196 26.5337 107.138 26.2637 107.024 26.0918C106.918 25.9118 106.713 25.8218 106.411 25.8218V25.5641C106.672 25.5887 106.926 25.6009 107.171 25.6009C107.515 25.6009 107.834 25.5887 108.128 25.5641C108.431 25.5314 108.709 25.4864 108.962 25.4291V26.5337C109.167 26.1164 109.445 25.8218 109.797 25.65C110.148 25.4782 110.541 25.3923 110.974 25.3923ZM119.983 22.2996V30.5591C119.983 30.9273 120.04 31.2014 120.154 31.3814C120.269 31.5532 120.473 31.6391 120.768 31.6391V31.8968C120.514 31.8723 120.261 31.86 120.007 31.86C119.664 31.86 119.341 31.8723 119.038 31.8968C118.744 31.9214 118.47 31.9664 118.216 32.0318V23.7723C118.216 23.4041 118.159 23.1341 118.044 22.9623C117.938 22.7823 117.733 22.6923 117.431 22.6923V22.4346C117.693 22.4591 117.946 22.4714 118.191 22.4714C118.527 22.4714 118.846 22.4591 119.148 22.4346C119.451 22.4018 119.729 22.3568 119.983 22.2996ZM116.854 25.3923C117.214 25.3923 117.529 25.4537 117.799 25.5764C118.077 25.6909 118.294 25.8873 118.449 26.1655L118.302 26.3005C118.196 26.1041 118.052 25.965 117.872 25.8832C117.701 25.7932 117.517 25.7482 117.32 25.7482C116.903 25.7482 116.572 25.9937 116.327 26.4846C116.081 26.9673 115.963 27.7159 115.971 28.7305C115.971 29.4259 116.016 29.9823 116.106 30.3996C116.204 30.8087 116.339 31.1032 116.511 31.2832C116.691 31.4632 116.895 31.5532 117.124 31.5532C117.402 31.5532 117.652 31.4427 117.872 31.2218C118.093 31.0009 118.212 30.7023 118.228 30.3259L118.29 30.7555C118.167 31.1891 117.967 31.5205 117.688 31.7496C117.419 31.9705 117.063 32.0809 116.621 32.0809C116.139 32.0809 115.705 31.9623 115.321 31.725C114.944 31.4877 114.65 31.1237 114.437 30.6327C114.225 30.1337 114.118 29.4914 114.118 28.7059C114.118 27.9614 114.237 27.3477 114.474 26.865C114.711 26.3741 115.034 26.0059 115.443 25.7605C115.86 25.515 116.331 25.3923 116.854 25.3923ZM124.444 25.3923C125.041 25.3923 125.565 25.5027 126.015 25.7237C126.464 25.9446 126.816 26.3005 127.07 26.7914C127.323 27.2823 127.45 27.9327 127.45 28.7427C127.45 29.5527 127.323 30.2032 127.07 30.6941C126.816 31.1768 126.464 31.5287 126.015 31.7496C125.565 31.9705 125.041 32.0809 124.444 32.0809C123.864 32.0809 123.344 31.9705 122.886 31.7496C122.436 31.5287 122.081 31.1768 121.819 30.6941C121.565 30.2032 121.438 29.5527 121.438 28.7427C121.438 27.9327 121.565 27.2823 121.819 26.7914C122.081 26.3005 122.436 25.9446 122.886 25.7237C123.344 25.5027 123.864 25.3923 124.444 25.3923ZM124.444 25.6377C124.117 25.6377 123.843 25.8832 123.622 26.3741C123.401 26.8568 123.291 27.6464 123.291 28.7427C123.291 29.8391 123.401 30.6287 123.622 31.1114C123.843 31.5941 124.117 31.8355 124.444 31.8355C124.78 31.8355 125.054 31.5941 125.266 31.1114C125.487 30.6287 125.597 29.8391 125.597 28.7427C125.597 27.6464 125.487 26.8568 125.266 26.3741C125.054 25.8832 124.78 25.6377 124.444 25.6377Z" fill="white"/>
</svg>
