<svg width="84" height="84" viewBox="0 0 84 84" fill="none" xmlns="http://www.w3.org/2000/svg">
<path d="M42.0001 1.16666C64.5523 1.16666 82.8334 19.4477 82.8334 42C82.8334 64.5522 64.5523 82.8333 42.0001 82.8333C19.4478 82.8333 1.16675 64.5522 1.16675 42C1.16675 19.4477 19.4478 1.16666 42.0001 1.16666ZM42.0001 9.33333C33.3363 9.33333 25.0274 12.775 18.9013 18.9012C12.7751 25.0274 9.33342 33.3363 9.33342 42C9.33342 50.6637 12.7751 58.9726 18.9013 65.0988C25.0274 71.225 33.3363 74.6667 42.0001 74.6667C50.6638 74.6667 58.9727 71.225 65.0989 65.0988C71.2251 58.9726 74.6667 50.6637 74.6667 42C74.6667 33.3363 71.2251 25.0274 65.0989 18.9012C58.9727 12.775 50.6638 9.33333 42.0001 9.33333ZM54.932 42C59.0643 42 62.4168 45.3483 62.4168 49.4848V50.1667C62.4168 55.5815 60.2657 60.7746 56.4368 64.6034C52.608 68.4323 47.4149 70.5833 42.0001 70.5833C36.5852 70.5833 31.3922 68.4323 27.5633 64.6034C23.7345 60.7746 21.5834 55.5815 21.5834 50.1667V49.4848C21.5834 45.3524 24.9317 42 29.0682 42H54.932ZM54.2501 50.1667H29.7501C29.7501 53.4156 31.0407 56.5314 33.338 58.8287C35.6353 61.126 38.7512 62.4167 42.0001 62.4167C45.249 62.4167 48.3648 61.126 50.6621 58.8287C52.9595 56.5314 54.2501 53.4156 54.2501 50.1667ZM29.7501 21.5833C30.7502 21.5835 31.7155 21.9507 32.4629 22.6153C33.2103 23.2799 33.6878 24.1956 33.8048 25.1889L33.8334 25.6667V33.8333C33.8323 34.8741 33.4337 35.8751 32.7193 36.6319C32.0048 37.3887 31.0284 37.8441 29.9894 37.9051C28.9504 37.9661 27.9274 37.6281 27.1293 36.9601C26.3312 36.2921 25.8183 35.3446 25.6953 34.3111L25.6667 33.8333V25.6667C25.6667 24.5837 26.097 23.5451 26.8627 22.7793C27.6285 22.0135 28.6671 21.5833 29.7501 21.5833ZM51.3632 22.7797C52.098 22.0474 53.084 21.6222 54.121 21.5906C55.1579 21.5589 56.1681 21.9231 56.9462 22.6093C57.7244 23.2954 58.2122 24.252 58.3105 25.2848C58.4089 26.3175 58.1105 27.349 57.4759 28.1697L57.137 28.5536L55.9406 29.75L57.137 30.9464C57.8693 31.6812 58.2945 32.6673 58.3262 33.7042C58.3578 34.7412 57.9936 35.7513 57.3075 36.5295C56.6213 37.3076 55.6647 37.7954 54.632 37.8938C53.5992 37.9922 52.5677 37.6938 51.747 37.0592L51.3632 36.7202L47.2798 32.6369C46.5768 31.9338 46.1544 30.9983 46.092 30.0059C46.0296 29.0136 46.3315 28.0326 46.9409 27.2469L47.2798 26.8631L51.3632 22.7797Z" fill="#460201" stroke="black"/>
</svg>
